#!OML:ASF F:\VICON\USERDATA\INSTALL\rory3\rory3.ASF
:FULLY-SPECIFIED
:DEGREES
123
root 1.09388 17.9662 -5.73005 -1.31125 -0.686688 3.38024
lowerback 10.828 -0.310751 -4.13986
upperback 0.499814 -0.887054 0.617005
thorax -5.48343 -0.32476 3.11904
lowerneck -16.5549 -2.89044 -1.78177
upperneck 20.5315 -3.66393 0.488339
head 9.23636 -1.79827 -0.00346776
rclavicle 4.32357e-015 -6.36111e-015
rhumerus -29.6014 -19.4588 -79.5157
rradius 24.218
rwrist 6.31194
rhand -16.1915 19.937
rfingers 7.12502
rthumb 10.0154 -9.80466
lclavicle 4.32357e-015 -6.36111e-015
lhumerus -22.0041 -2.97453 81.4878
lradius 28.0579
lwrist 6.94581
lhand -27.2703 27.2965
lfingers 7.12502
lthumb -0.681173 57.2752
rfemur -30.9803 4.78605 17.0213
rtibia 31.3229
rfoot -10.2134 -16.9993
rtoes 4.40431
lfemur 4.37708 -1.14474 -28.0646
ltibia 19.4329
lfoot -16.9702 1.65571
ltoes -0.537224
124
root 1.07493 17.9552 -5.56506 -1.21853 -0.610698 3.35733
lowerback 10.8717 -0.394957 -4.20949
upperback 0.490647 -1.00803 0.645357
thorax -5.50585 -0.38145 3.2075
lowerneck -16.6014 -2.8313 -1.58019
upperneck 20.4523 -3.57944 0.256534
head 9.2075 -1.76909 -0.10521
rclavicle -5.98839e-015 -6.36111e-015
rhumerus -29.4475 -19.2735 -79.7114
rradius 24.3542
rwrist 6.10129
rhand -16.2529 20.0031
rfingers 7.12502
rthumb 9.95621 -9.74139
lclavicle -5.98839e-015 -6.36111e-015
lhumerus -21.6875 -3.28905 81.4226
lradius 28.3527
lwrist 7.30197
lhand -27.1427 27.2042
lfingers 7.12502
lthumb -0.557902 57.1832
rfemur -30.8622 5.7399 16.5688
rtibia 28.5319
rfoot -10.4388 -17.7678
rtoes 4.04787
lfemur 5.25345 -1.03388 -27.9795
ltibia 18.5978
lfoot -16.9613 1.5772
ltoes -2.325
125
root 1.05794 17.9398 -5.39376 -1.09786 -0.546431 3.34516
lowerback 10.6807 -0.486633 -4.27117
upperback 0.561932 -1.12401 0.703665
thorax -5.31126 -0.442559 3.31609
lowerneck -16.6972 -2.79712 -1.77376
upperneck 20.389 -3.5164 0.423766
head 9.20983 -1.73572 -0.0089168
rclavicle -7.35503e-015 1.98785e-015
rhumerus -29.1345 -19.1937 -79.8866
rradius 24.5401
rwrist 6.23109
rhand -16.4773 18.5236
rfingers 7.12502
rthumb 9.73971 -11.2311
lclavicle -7.35503e-015 1.98785e-015
lhumerus -21.2688 -3.51485 81.4277
lradius 28.7254
lwrist 7.76212
lhand -26.8564 29.247
lfingers 7.12502
lthumb -0.281377 59.2266
rfemur -30.7757 6.71919 16.0478
rtibia 25.8254
rfoot -10.2061 -18.287
rtoes 4.69299
lfemur 5.89535 -0.903855 -27.941
ltibia 17.823
lfoot -16.6236 1.58151
ltoes -3.02811
126
root 1.04597 17.9312 -5.21404 -1.09746 -0.369465 3.61979
lowerback 10.5294 -0.581606 -4.50321
upperback 0.706223 -1.27122 0.641383
thorax -5.05813 -0.519655 3.39753
lowerneck -16.7786 -2.7877 -1.96709
upperneck 20.3652 -3.50975 0.682711
head 9.22547 -1.71824 0.111462
rclavicle -1.19271e-014 7.15625e-015
rhumerus -28.989 -19.1046 -79.9563
rradius 24.6852
rwrist 6.47177
rhand -16.515 18
rfingers 7.12502
rthumb 9.70332 -11.7565
lclavicle -1.19271e-014 7.15625e-015
lhumerus -20.9156 -3.84602 81.3937
lradius 29.2568
lwrist 7.62996
lhand -26.5967 30.4806
lfingers 7.12502
lthumb -0.03053 60.4603
rfemur -30.4368 7.15704 15.3173
rtibia 23.1864
rfoot -10.7247 -18.3881
rtoes 6.20091
lfemur 6.91607 -0.906212 -28.2746
ltibia 17.1406
lfoot -16.16 1.84354
ltoes -2.66773
127
root 1.03271 17.9278 -5.03731 -1.12015 -0.107176 3.77113
lowerback 10.4558 -0.721502 -4.61006
upperback 0.837931 -1.46503 0.602012
thorax -4.85915 -0.62117 3.43994
lowerneck -16.8141 -2.77119 -2.03747
upperneck 20.3302 -3.49192 0.791243
head 9.22311 -1.70311 0.162287
rclavicle -4.02539e-015 -1.27222e-014
rhumerus -28.8153 -19.5758 -79.7869
rradius 24.4654
rwrist 6.67454
rhand -15.6754 19.3235
rfingers 7.12502
rthumb 10.5133 -10.3935
lclavicle -4.02539e-015 -1.27222e-014
lhumerus -20.6137 -4.05648 81.337
lradius 29.5127
lwrist 6.9533
lhand -26.7125 29.4901
lfingers 7.12502
lthumb -0.142458 59.4698
rfemur -29.9926 7.46727 14.7522
rtibia 20.6786
rfoot -11.5596 -18.1659
rtoes 7.86709
lfemur 8.07301 -0.918906 -28.4125
ltibia 16.4347
lfoot -16.3091 1.67839
ltoes -3.52463
128
root 1.01386 17.9265 -4.86363 -0.975405 0.146101 3.63647
lowerback 10.2141 -0.879845 -4.52318
upperback 0.958022 -1.64651 0.686041
thorax -4.58105 -0.721726 3.49506
lowerneck -16.9831 -2.79955 -2.07619
upperneck 20.2754 -3.51649 0.793139
head 9.23626 -1.71648 0.16414
rclavicle -2.74323e-014 2.06736e-014
rhumerus -28.6121 -19.8807 -79.6976
rradius 24.5612
rwrist 6.31416
rhand -14.7178 19.9634
rfingers 7.12502
rthumb 11.4369 -9.70471
lclavicle -2.74323e-014 2.06736e-014
lhumerus -20.0903 -4.22528 81.3271
lradius 29.399
lwrist 6.7292
lhand -27.466 29.456
lfingers 7.12502
lthumb -0.870157 59.434
rfemur -29.7433 8.24085 14.3429
rtibia 18.4014
rfoot -12.2351 -18.1585
rtoes 6.82309
lfemur 8.79527 -1.14548 -28.1995
ltibia 15.7855
lfoot -15.7084 1.61687
ltoes -2.02318
